<?xml version="1.0" encoding="utf-8"?>
<!-- Generator: Adobe Illustrator 19.1.0, SVG Export Plug-In . SVG Version: 6.00 Build 0)  -->
<svg version="1.1" id="Layer_1" xmlns="http://www.w3.org/2000/svg" xmlns:xlink="http://www.w3.org/1999/xlink" x="0px" y="0px"
	 viewBox="-377 23 256 256" style="enable-background:new -377 23 256 256;" xml:space="preserve">
<style type="text/css">
	.st0{fill:#00B0FF;}
</style>
<g>
	<g>
		<path class="st0" d="M-328.4,59.6h167.3c8.2,0,15.3,7,15.3,15.3s-7,15.3-15.3,15.3h-167.3c-8.2,0-15.3-7-15.3-15.3
			S-337.2,59.6-328.4,59.6z"/>
		<path class="st0" d="M-351.2,112.4H-184c8.2,0,15.3,7,15.3,15.3s-7,15.3-15.3,15.3h-167.3c-8.2,0-15.3-7-15.3-15.3
			C-366.5,118.9-360,112.4-351.2,112.4z"/>
		<path class="st0" d="M-313.7,164.7h167.3c8.2,0,15.3,7,15.3,15.3c0,8.2-7,15.3-15.3,15.3h-167.3c-8.2,0-15.3-7-15.3-15.3
			C-328.4,171.7-321.9,164.7-313.7,164.7z"/>
		<path class="st0" d="M-336,217.5h167.3c8.2,0,15.3,7,15.3,15.3c0,8.2-7,15.3-15.3,15.3H-336c-8.2,0-15.3-7-15.3-15.3
			S-344.8,217.5-336,217.5z"/>
	</g>
</g>
</svg>
